<svg id="Layer_1" data-name="Layer 1" xmlns="http://www.w3.org/2000/svg" xmlns:xlink="http://www.w3.org/1999/xlink" viewBox="0 0 120 120"><defs><style>.cls-1{fill:none;}.cls-2{clip-path:url(#clip-path);}.cls-3{fill:#fff;}.cls-4{clip-path:url(#clip-path-2);}</style><clipPath id="clip-path"><rect class="cls-1" x="4" y="3.48" width="51.76" height="112.62"/></clipPath><clipPath id="clip-path-2"><rect class="cls-1" x="65.59" y="3.48" width="51.76" height="112.62"/></clipPath></defs><title>Imagotipo120x120</title><g class="cls-2"><path class="cls-3" d="M25.77,54.45H15A46,46,0,0,1,55.38,14.18V3.48a56.55,56.55,0,0,0,0,112.62v-10.7A46,46,0,0,1,15,65.13H25.77A35.34,35.34,0,0,0,55.38,94.66V83.83a24.62,24.62,0,0,1,0-48.09V24.92A35.34,35.34,0,0,0,25.77,54.45Z"/></g><g class="cls-4"><path class="cls-3" d="M117.33,56.34A56.64,56.64,0,0,0,66.08,3.48V35.74a24.62,24.62,0,0,1,0,48.09V94.66a35.31,35.31,0,0,0,30-34.4l10.24,5.89a46,46,0,0,1-40.24,39.25v10.7a56.64,56.64,0,0,0,51.25-52.86l-6-3.45Zm-21.24,3a35.26,35.26,0,0,0-19.3-31V16.75a46,46,0,0,1,29.54,36.68Z"/></g></svg>