<svg id="Layer_1" data-name="Layer 1" xmlns="http://www.w3.org/2000/svg" xmlns:xlink="http://www.w3.org/1999/xlink" viewBox="0 0 356 120"><defs><style>.cls-1{fill:none;}.cls-2{clip-path:url(#clip-path);}.cls-3{fill:#fff;}.cls-4{clip-path:url(#clip-path-2);}</style><clipPath id="clip-path"><rect class="cls-1" x="6" y="3.48" width="51.76" height="112.62"/></clipPath><clipPath id="clip-path-2"><rect class="cls-1" x="67.59" y="3.48" width="51.76" height="112.62"/></clipPath></defs><title>Logo+Imagotipo</title><g class="cls-2"><path class="cls-3" d="M27.77,54.45H17A46,46,0,0,1,57.38,14.18V3.48a56.55,56.55,0,0,0,0,112.62v-10.7A46,46,0,0,1,17,65.13H27.77A35.34,35.34,0,0,0,57.38,94.66V83.83a24.62,24.62,0,0,1,0-48.09V24.92A35.34,35.34,0,0,0,27.77,54.45Z"/></g><g class="cls-4"><path class="cls-3" d="M119.33,56.34A56.64,56.64,0,0,0,68.08,3.48V35.74a24.62,24.62,0,0,1,0,48.09V94.66a35.31,35.31,0,0,0,30-34.4l10.24,5.89a46,46,0,0,1-40.24,39.25v10.7a56.64,56.64,0,0,0,51.25-52.86l-6-3.45Zm-21.24,3a35.26,35.26,0,0,0-19.3-31V16.75a46,46,0,0,1,29.54,36.68Z"/></g><path class="cls-3" d="M155,64.83h3.76L150,48l-8.75,16.86h3.56l1.07-2.22h8Zm-5.15-10.5,2.54,5.16h-5Z"/><path class="cls-3" d="M162.06,48.26V64.83h6.75a8.29,8.29,0,1,0,0-16.57Zm3.45,13.45V51.37h3.27a5.17,5.17,0,0,1,0,10.34Z"/><path class="cls-3" d="M181.74,48.26V64.83h6.75a8.29,8.29,0,1,0,0-16.57Zm3.45,13.45V51.37h3.27a5.17,5.17,0,0,1,0,10.34Z"/><path class="cls-3" d="M204.87,48.26h-3.45V64.83h3.45Z"/><path class="cls-3" d="M216.23,64.83V51.37h4.36V48.26H208.68v3.11h4.1V64.83Z"/><path class="cls-3" d="M227.85,48.26H224.4V64.83h3.45Z"/><path class="cls-3" d="M240.72,65.11a8.57,8.57,0,1,0-8.6-8.58A8.57,8.57,0,0,0,240.72,65.11Zm0-13.85a5.28,5.28,0,0,1,0,10.54,5.28,5.28,0,0,1,0-10.54Z"/><path class="cls-3" d="M265.37,57.84l-11.8-9.89V64.83H257V55.31l11.8,9.81V48.26h-3.45Z"/><path class="cls-3" d="M285.83,64.83h3.76L280.82,48l-8.75,16.86h3.56l1.07-2.22h8Zm-5.15-10.5,2.54,5.16h-5Z"/><path class="cls-3" d="M292.84,48.26V64.83H303V61.71h-6.68V48.26Z"/><path class="cls-3" d="M317.87,48.26V64.83h3.45V57.55h7.62v7.27h3.45V48.26h-3.45v6.2h-7.62v-6.2Z"/><path class="cls-3" d="M342.54,62l2.72,2.87h4.59L346.26,61A6.47,6.47,0,0,0,350,54.77a6.64,6.64,0,0,0-6.88-6.52h-5.77V64.83h3.45V62Zm-1.74-3.11V51.37h2.09A3.39,3.39,0,0,1,346.46,55c0,2.47-1.49,3.8-4.23,3.8Z"/><path class="cls-3" d="M157.7,81a5.13,5.13,0,0,1,2.85.83L160,83a4.65,4.65,0,0,0-2.38-.75,1.83,1.83,0,0,0-1,.22.71.71,0,0,0-.35.63.87.87,0,0,0,.32.69,2.05,2.05,0,0,0,.8.43c.33.09.68.2,1.06.34a9.31,9.31,0,0,1,1,.43,2,2,0,0,1,.82.7,2.19,2.19,0,0,1-.53,2.88,3.62,3.62,0,0,1-2.21.63,4.77,4.77,0,0,1-1.8-.35,5.08,5.08,0,0,1-1.53-.94l.6-1.18a4.83,4.83,0,0,0,1.36.87,3.61,3.61,0,0,0,1.4.31,2,2,0,0,0,1.11-.26.82.82,0,0,0,.4-.72.88.88,0,0,0-.32-.7,2,2,0,0,0-.82-.41l-1-.34c-.38-.13-.74-.26-1.06-.4a1.92,1.92,0,0,1-.82-.69,2,2,0,0,1-.32-1.15,2,2,0,0,1,.82-1.64A3.46,3.46,0,0,1,157.7,81Z"/><path class="cls-3" d="M169.94,82.26H165.5v2.2h4v1.23h-4v2.24h4.58v1.23h-5.94V81h5.8Z"/><path class="cls-3" d="M178.8,89.15l-1.49-2.46H175v2.44h-1.36V81h3.29a3.63,3.63,0,0,1,2.41.72,2.52,2.52,0,0,1,.87,2,3,3,0,0,1-.44,1.66,2.45,2.45,0,0,1-1.24,1l1.83,2.72ZM175,85.48h1.93q2,0,2-1.64t-2-1.58H175Z"/><path class="cls-3" d="M187.54,89.15h-1.41L182.89,81h1.48l2.5,6.6L189.4,81h1.42Z"/><path class="cls-3" d="M195.18,89.15h-1.36V81h1.36Z"/><path class="cls-3" d="M202.81,81a4.37,4.37,0,0,1,1.67.34,4.44,4.44,0,0,1,1.41.92l-.8,1a3.27,3.27,0,0,0-1-.74,2.89,2.89,0,0,0-3.28.54,2.87,2.87,0,0,0,0,4.06,2.82,2.82,0,0,0,2.06.83,3.17,3.17,0,0,0,2.27-1l.82.91a4.62,4.62,0,0,1-1.46,1,4.38,4.38,0,0,1-1.68.35,4.19,4.19,0,0,1-3-1.18,4,4,0,0,1-1.22-2.95,3.85,3.85,0,0,1,1.24-2.91A4.27,4.27,0,0,1,202.81,81Z"/><path class="cls-3" d="M215,82.26h-4.44v2.2h4v1.23h-4v2.24h4.58v1.23h-5.94V81H215Z"/><path class="cls-3" d="M221.37,81a5.13,5.13,0,0,1,2.85.83l-.57,1.2a4.65,4.65,0,0,0-2.38-.75,1.83,1.83,0,0,0-1,.22.71.71,0,0,0-.35.63.87.87,0,0,0,.32.69,2.05,2.05,0,0,0,.8.43c.33.09.68.2,1.06.34a9.31,9.31,0,0,1,1,.43,2,2,0,0,1,.82.7,2.19,2.19,0,0,1-.53,2.88,3.62,3.62,0,0,1-2.21.63,4.77,4.77,0,0,1-1.8-.35,5.08,5.08,0,0,1-1.53-.94l.6-1.18a4.83,4.83,0,0,0,1.36.87,3.61,3.61,0,0,0,1.4.31,2,2,0,0,0,1.11-.26.82.82,0,0,0,.4-.72.88.88,0,0,0-.32-.7,2,2,0,0,0-.82-.41l-1-.34c-.38-.13-.74-.26-1.06-.4a1.92,1.92,0,0,1-.82-.69,2,2,0,0,1-.32-1.15,2,2,0,0,1,.82-1.64A3.46,3.46,0,0,1,221.37,81Z"/><path class="cls-3" d="M237,85.84h-2v2h-.87v-2H232v-.92h2.06v-2h.87v2h2Z"/><path class="cls-3" d="M248.84,81a4.37,4.37,0,0,1,1.67.34,4.44,4.44,0,0,1,1.41.92l-.8,1a3.27,3.27,0,0,0-1-.74,2.89,2.89,0,0,0-3.28.54,2.87,2.87,0,0,0,0,4.06,2.82,2.82,0,0,0,2.06.83,3.17,3.17,0,0,0,2.27-1l.82.91a4.62,4.62,0,0,1-1.46,1,4.38,4.38,0,0,1-1.68.35,4.19,4.19,0,0,1-3-1.18,4,4,0,0,1-1.22-2.95,3.85,3.85,0,0,1,1.24-2.91A4.27,4.27,0,0,1,248.84,81Z"/><path class="cls-3" d="M255.77,82.17a4.59,4.59,0,0,1,6.14,0,4.07,4.07,0,0,1,0,5.86,4.59,4.59,0,0,1-6.14,0,4.07,4.07,0,0,1,0-5.86Zm3.08.05a2.88,2.88,0,0,0-2.07.84,2.84,2.84,0,0,0,0,4.07,2.84,2.84,0,0,0,2.06.84,2.89,2.89,0,0,0,2.9-2.88,2.72,2.72,0,0,0-.85-2A2.8,2.8,0,0,0,258.85,82.22Z"/><path class="cls-3" d="M273.55,89.15h-1.35l-4.34-5.82v5.82h-1.36V81h1.35l4.35,5.83V81h1.35Z"/><path class="cls-3" d="M280.26,81a5.13,5.13,0,0,1,2.85.83l-.57,1.2a4.65,4.65,0,0,0-2.38-.75,1.83,1.83,0,0,0-1,.22.71.71,0,0,0-.35.63.87.87,0,0,0,.32.69,2.05,2.05,0,0,0,.8.43c.33.09.68.2,1.06.34a9.31,9.31,0,0,1,1,.43,2,2,0,0,1,.82.7,2.19,2.19,0,0,1-.53,2.88,3.62,3.62,0,0,1-2.21.63,4.77,4.77,0,0,1-1.8-.35,5.08,5.08,0,0,1-1.53-.94l.6-1.18a4.83,4.83,0,0,0,1.36.87,3.61,3.61,0,0,0,1.4.31,2,2,0,0,0,1.11-.26.82.82,0,0,0,.4-.72.88.88,0,0,0-.32-.7,2,2,0,0,0-.82-.41l-1-.34c-.38-.13-.74-.26-1.06-.4a1.92,1.92,0,0,1-.82-.69,2,2,0,0,1-.32-1.15,2,2,0,0,1,.82-1.64A3.46,3.46,0,0,1,280.26,81Z"/><path class="cls-3" d="M293.6,81v4.76a3.34,3.34,0,0,1-.95,2.51,4.16,4.16,0,0,1-5.18,0,3.33,3.33,0,0,1-.95-2.51V81h1.37v4.76A2,2,0,0,0,290.08,88a2.13,2.13,0,0,0,1.58-.57,2.21,2.21,0,0,0,.57-1.62V81Z"/><path class="cls-3" d="M298.82,87.91h3.52v1.24h-4.88V81h1.36Z"/><path class="cls-3" d="M311.09,82.26h-2.58v6.89h-1.37V82.26h-2.56V81h6.51Z"/><path class="cls-3" d="M315.52,89.15h-1.36V81h1.36Z"/><path class="cls-3" d="M326.59,89.15h-1.35l-4.34-5.82v5.82h-1.36V81h1.35l4.35,5.83V81h1.35Z"/><path class="cls-3" d="M336.19,85.15h1.2v3a5.09,5.09,0,0,1-1.49.76,5.24,5.24,0,0,1-1.67.28,4.26,4.26,0,0,1-3-1.18,3.9,3.9,0,0,1-1.24-2.94,3.84,3.84,0,0,1,1.26-2.92A4.38,4.38,0,0,1,334.31,81a4.77,4.77,0,0,1,1.68.31,4.65,4.65,0,0,1,1.44.83l-.78,1a3.36,3.36,0,0,0-2.34-.92,2.92,2.92,0,0,0-2.11.84,2.72,2.72,0,0,0-.85,2,2.75,2.75,0,0,0,.87,2.06,2.94,2.94,0,0,0,2.11.83,3.6,3.6,0,0,0,1.87-.56Z"/></svg>