<?xml version="1.0" encoding="utf-8"?>
<!-- Generator: Adobe Illustrator 21.1.0, SVG Export Plug-In . SVG Version: 6.00 Build 0)  -->
<svg version="1.1" id="Layer_1" xmlns="http://www.w3.org/2000/svg" xmlns:xlink="http://www.w3.org/1999/xlink" x="0px" y="0px"
	 viewBox="0 0 250 120" style="enable-background:new 0 0 250 120;" xml:space="preserve">
<style type="text/css">
	.st0{fill:#FFFFFF;}
</style>
<g>
	<g transform="translate(61.201223, 260.681935)">
		<g>
			<path class="st0" d="M-39.5-204.5h4.3l-9.9-19l-9.9,19h4l1.2-2.5h9.1L-39.5-204.5z M-45.3-216.4l2.9,5.8h-5.7L-45.3-216.4z"/>
		</g>
	</g>
</g>
<g>
	<g transform="translate(84.193636, 260.681935)">
		<g>
			<path class="st0" d="M-54.6-223.3v18.7h7.6c5.4,0,9.8-4,9.8-9.4c0-5.3-4.4-9.4-9.8-9.4H-54.6z M-50.7-208.1v-11.7h3.7
				c3.3,0,5.8,2.4,5.8,5.8c0,3.4-2.5,5.9-5.8,5.9H-50.7z"/>
		</g>
	</g>
</g>
<g>
	<g transform="translate(107.938121, 260.681935)">
		<g>
			<path class="st0" d="M-56.1-223.3v18.7h7.6c5.4,0,9.8-4,9.8-9.4c0-5.3-4.4-9.4-9.8-9.4H-56.1z M-52.2-208.1v-11.7h3.7
				c3.3,0,5.8,2.4,5.8,5.8c0,3.4-2.5,5.9-5.8,5.9H-52.2z"/>
		</g>
	</g>
</g>
<g>
	<g transform="translate(131.682604, 260.681935)">
		<g>
			<path class="st0" d="M-53.7-223.3h-3.9v18.7h3.9V-223.3z"/>
		</g>
	</g>
</g>
<g>
	<g transform="translate(141.836202, 260.681935)">
		<g>
			<path class="st0" d="M-51-204.5v-15.2h4.9v-3.5h-13.5v3.5h4.6v15.2H-51z"/>
		</g>
	</g>
</g>
<g>
	<g transform="translate(159.403002, 260.681935)">
		<g>
			<path class="st0" d="M-55.4-223.3h-3.9v18.7h3.9V-223.3z"/>
		</g>
	</g>
</g>
<g>
	<g transform="translate(169.5566, 260.681935)">
		<g>
			<path class="st0" d="M-51.1-204.2c5.4,0,9.7-4.3,9.7-9.7c0-5.4-4.3-9.7-9.7-9.7c-5.4,0-9.7,4.3-9.7,9.7
				C-60.8-208.6-56.4-204.2-51.1-204.2z M-51.1-219.9c3.2,0,5.7,2.7,5.7,6c0,3.3-2.5,6-5.7,6c-3.2,0-5.7-2.6-5.7-6
				C-56.8-217.2-54.3-219.9-51.1-219.9z"/>
		</g>
	</g>
</g>
<g>
	<g transform="translate(194.590332, 260.681935)">
		<g>
			<path class="st0" d="M-48.2-212.4l-13.3-11.2v19.1h3.9v-10.8l13.3,11.1v-19h-3.9V-212.4z"/>
		</g>
	</g>
</g>
<g>
	<g transform="translate(218.979441, 260.681935)">
		<g>
			<path class="st0" d="M-49.5-204.5h4.3l-9.9-19l-9.9,19h4l1.2-2.5h9.1L-49.5-204.5z M-55.3-216.4l2.9,5.8h-5.7L-55.3-216.4z"/>
		</g>
	</g>
</g>
<g>
	<g transform="translate(241.971855, 260.681935)">
		<g>
			<path class="st0" d="M-64.6-223.3v18.7h11.5v-3.5h-7.6v-15.2H-64.6z"/>
		</g>
	</g>
</g>
<g>
	<g transform="translate(272.163313, 260.681935)">
		<g>
			<path class="st0" d="M-66.5-223.3v18.7h3.9v-8.2h8.6v8.2h3.9v-18.7H-54v7h-8.6v-7H-66.5z"/>
		</g>
	</g>
</g>
<g>
	<g transform="translate(295.666043, 260.681935)">
		<g>
			<path class="st0" d="M-62.1-207.8l3.1,3.2h5.2l-4.1-4.3c2.6-1.2,4.2-3.7,4.2-7c0-4.1-3.4-7.4-7.8-7.4H-68v18.7h3.9v-3.2H-62.1z
				 M-64.1-211.3v-8.4h2.4c2.7,0,4,1.9,4,4.1c0,2.8-1.7,4.3-4.8,4.3H-64.1z"/>
		</g>
	</g>
</g>
<g>
	<g transform="translate(76.32457, 290.066583)">
		<g>
			<path class="st0" d="M-51.7-215.7c1.2,0,2.3,0.3,3.2,0.9l-0.6,1.4c-0.9-0.6-1.8-0.8-2.7-0.8c-0.5,0-0.8,0.1-1.1,0.2
				c-0.3,0.2-0.4,0.4-0.4,0.7c0,0.3,0.1,0.6,0.4,0.8c0.2,0.2,0.5,0.4,0.9,0.5c0.4,0.1,0.8,0.2,1.2,0.4c0.4,0.1,0.8,0.3,1.2,0.5
				c0.4,0.2,0.7,0.4,0.9,0.8c0.2,0.4,0.4,0.8,0.4,1.3c0,0.8-0.3,1.5-1,1.9c-0.6,0.5-1.5,0.7-2.5,0.7c-0.7,0-1.4-0.1-2-0.4
				c-0.7-0.3-1.2-0.6-1.7-1.1l0.7-1.3c0.5,0.4,1,0.7,1.5,1c0.6,0.2,1.1,0.4,1.6,0.4c0.5,0,1-0.1,1.3-0.3c0.3-0.2,0.5-0.5,0.5-0.8
				c0-0.3-0.1-0.6-0.4-0.8c-0.2-0.2-0.6-0.4-0.9-0.5c-0.4-0.1-0.8-0.2-1.2-0.4c-0.4-0.1-0.8-0.3-1.2-0.5c-0.4-0.2-0.7-0.4-0.9-0.8
				c-0.2-0.4-0.4-0.8-0.4-1.3c0-0.8,0.3-1.4,0.9-1.9C-53.5-215.4-52.7-215.7-51.7-215.7z"/>
		</g>
	</g>
</g>
<g>
	<g transform="translate(87.313501, 290.066583)">
		<g>
			<path class="st0" d="M-48.8-214.2h-5v2.5h4.5v1.4h-4.5v2.5h5.2v1.4h-6.7v-9.2h6.6V-214.2z"/>
		</g>
	</g>
</g>
<g>
	<g transform="translate(98.778965, 290.066583)">
		<g>
			<path class="st0" d="M-50.3-206.4l-1.7-2.8c-0.1,0-0.2,0-0.4,0h-2.2v2.8h-1.5v-9.2h3.7c1.2,0,2.1,0.3,2.7,0.8
				c0.7,0.5,1,1.3,1,2.3c0,0.7-0.2,1.4-0.5,1.9c-0.3,0.5-0.8,0.9-1.4,1.1l2.1,3.1H-50.3z M-54.5-210.6h2.2c1.5,0,2.2-0.6,2.2-1.9
				c0-1.2-0.7-1.8-2.2-1.8h-2.2V-210.6z"/>
		</g>
	</g>
</g>
<g>
	<g transform="translate(111.183471, 290.066583)">
		<g>
			<path class="st0" d="M-52.8-206.4h-1.6l-3.7-9.2h1.7l2.8,7.5l2.9-7.5h1.6L-52.8-206.4z"/>
		</g>
	</g>
</g>
<g>
	<g transform="translate(123.125466, 290.066583)">
		<g>
			<path class="st0" d="M-56.1-206.4h-1.5v-9.2h1.5V-206.4z"/>
		</g>
	</g>
</g>
<g>
	<g transform="translate(129.629401, 290.066583)">
		<g>
			<path class="st0" d="M-54-215.7c0.6,0,1.3,0.1,1.9,0.4c0.6,0.3,1.1,0.6,1.6,1l-0.9,1.1c-0.3-0.4-0.7-0.6-1.2-0.8
				c-0.5-0.2-0.9-0.3-1.4-0.3c-0.9,0-1.7,0.3-2.3,0.9c-0.6,0.6-1,1.4-1,2.3c0,0.9,0.3,1.7,1,2.3c0.6,0.6,1.4,0.9,2.3,0.9
				c1,0,1.8-0.4,2.6-1.1l0.9,1c-0.5,0.5-1,0.8-1.7,1.1c-0.6,0.3-1.3,0.4-1.9,0.4c-1.3,0-2.5-0.4-3.4-1.3c-0.9-0.9-1.4-2-1.4-3.3
				c0-1.3,0.5-2.4,1.4-3.3C-56.5-215.2-55.3-215.7-54-215.7z"/>
		</g>
	</g>
</g>
<g>
	<g transform="translate(141.669506, 290.066583)">
		<g>
			<path class="st0" d="M-52.2-214.2h-5v2.5h4.5v1.4h-4.5v2.5h5.2v1.4h-6.7v-9.2h6.6V-214.2z"/>
		</g>
	</g>
</g>
<g>
	<g transform="translate(153.134969, 290.066583)">
		<g>
			<path class="st0" d="M-56.5-215.7c1.2,0,2.3,0.3,3.2,0.9l-0.6,1.4c-0.9-0.6-1.8-0.8-2.7-0.8c-0.5,0-0.8,0.1-1.1,0.2
				c-0.3,0.2-0.4,0.4-0.4,0.7c0,0.3,0.1,0.6,0.4,0.8c0.2,0.2,0.5,0.4,0.9,0.5c0.4,0.1,0.8,0.2,1.2,0.4c0.4,0.1,0.8,0.3,1.2,0.5
				c0.4,0.2,0.7,0.4,0.9,0.8c0.2,0.4,0.4,0.8,0.4,1.3c0,0.8-0.3,1.5-1,1.9c-0.6,0.5-1.5,0.7-2.5,0.7c-0.7,0-1.4-0.1-2-0.4
				c-0.7-0.3-1.2-0.6-1.7-1.1l0.7-1.3c0.5,0.4,1,0.7,1.5,1c0.6,0.2,1.1,0.4,1.6,0.4c0.5,0,1-0.1,1.3-0.3c0.3-0.2,0.5-0.5,0.5-0.8
				c0-0.3-0.1-0.6-0.4-0.8c-0.2-0.2-0.6-0.4-0.9-0.5c-0.4-0.1-0.8-0.2-1.2-0.4c-0.4-0.1-0.8-0.3-1.2-0.5c-0.4-0.2-0.7-0.4-0.9-0.8
				c-0.2-0.4-0.4-0.8-0.4-1.3c0-0.8,0.3-1.4,0.9-1.9C-58.3-215.4-57.5-215.7-56.5-215.7z"/>
		</g>
	</g>
</g>
<g>
	<g transform="translate(170.011146, 290.066583)">
		<g>
			<path class="st0" d="M-55.7-210.2H-58v2.3h-1v-2.3h-2.3v-1h2.3v-2.3h1v2.3h2.3V-210.2z"/>
		</g>
	</g>
</g>
<g>
	<g transform="translate(185.149396, 290.066583)">
		<g>
			<path class="st0" d="M-57.5-215.7c0.6,0,1.3,0.1,1.9,0.4c0.6,0.3,1.1,0.6,1.6,1l-0.9,1.1c-0.3-0.4-0.7-0.6-1.2-0.8
				c-0.5-0.2-0.9-0.3-1.4-0.3c-0.9,0-1.7,0.3-2.3,0.9c-0.6,0.6-1,1.4-1,2.3c0,0.9,0.3,1.7,1,2.3c0.6,0.6,1.4,0.9,2.3,0.9
				c1,0,1.8-0.4,2.6-1.1l0.9,1c-0.5,0.5-1,0.8-1.7,1.1c-0.6,0.3-1.3,0.4-1.9,0.4c-1.3,0-2.5-0.4-3.4-1.3c-0.9-0.9-1.4-2-1.4-3.3
				c0-1.3,0.5-2.4,1.4-3.3C-60-215.2-58.8-215.7-57.5-215.7z"/>
		</g>
	</g>
</g>
<g>
	<g transform="translate(197.189506, 290.066583)">
		<g>
			<path class="st0" d="M-61.7-214.3c0.9-0.9,2.1-1.3,3.5-1.3c1.4,0,2.5,0.4,3.5,1.3c0.9,0.9,1.4,2,1.4,3.3c0,1.3-0.5,2.4-1.4,3.3
				c-0.9,0.9-2.1,1.3-3.5,1.3c-1.4,0-2.5-0.4-3.5-1.3c-0.9-0.9-1.4-2-1.4-3.3C-63.1-212.3-62.6-213.4-61.7-214.3z M-58.2-214.3
				c-0.9,0-1.7,0.3-2.3,1c-0.6,0.6-1,1.4-1,2.3c0,0.9,0.3,1.7,1,2.3c0.7,0.6,1.4,1,2.3,1c0.9,0,1.7-0.3,2.3-1c0.6-0.6,1-1.4,1-2.3
				c0-0.9-0.3-1.7-1-2.3C-56.5-214-57.3-214.3-58.2-214.3z"/>
		</g>
	</g>
</g>
<g>
	<g transform="translate(210.813376, 290.066583)">
		<g>
			<path class="st0" d="M-55.2-206.4h-1.5l-4.9-6.6v6.6h-1.5v-9.2h1.5l4.9,6.6v-6.6h1.5V-206.4z"/>
		</g>
	</g>
</g>
<g>
	<g transform="translate(224.184972, 290.066583)">
		<g>
			<path class="st0" d="M-61-215.7c1.2,0,2.3,0.3,3.2,0.9l-0.6,1.4c-0.9-0.6-1.8-0.8-2.7-0.8c-0.5,0-0.8,0.1-1.1,0.2
				c-0.3,0.2-0.4,0.4-0.4,0.7c0,0.3,0.1,0.6,0.4,0.8c0.2,0.2,0.5,0.4,0.9,0.5c0.4,0.1,0.8,0.2,1.2,0.4c0.4,0.1,0.8,0.3,1.2,0.5
				c0.4,0.2,0.7,0.4,0.9,0.8c0.2,0.4,0.4,0.8,0.4,1.3c0,0.8-0.3,1.5-1,1.9c-0.6,0.5-1.5,0.7-2.5,0.7c-0.7,0-1.4-0.1-2-0.4
				c-0.7-0.3-1.2-0.6-1.7-1.1l0.7-1.3c0.5,0.4,1,0.7,1.5,1c0.6,0.2,1.1,0.4,1.6,0.4c0.5,0,1-0.1,1.3-0.3c0.3-0.2,0.5-0.5,0.5-0.8
				c0-0.3-0.1-0.6-0.4-0.8c-0.2-0.2-0.6-0.4-0.9-0.5c-0.4-0.1-0.8-0.2-1.2-0.4c-0.4-0.1-0.8-0.3-1.2-0.5c-0.4-0.2-0.7-0.4-0.9-0.8
				c-0.2-0.4-0.4-0.8-0.4-1.3c0-0.8,0.3-1.4,0.9-1.9C-62.8-215.4-62-215.7-61-215.7z"/>
		</g>
	</g>
</g>
<g>
	<g transform="translate(235.173909, 290.066583)">
		<g>
			<path class="st0" d="M-56.9-215.6v5.4c0,1.2-0.4,2.1-1.1,2.8c-0.7,0.7-1.7,1-2.9,1c-1.2,0-2.2-0.3-2.9-1
				c-0.7-0.7-1.1-1.6-1.1-2.8v-5.4h1.6v5.4c0,0.8,0.2,1.4,0.7,1.8s1,0.7,1.8,0.7s1.4-0.2,1.8-0.6c0.4-0.4,0.6-1,0.6-1.8v-5.4H-56.9z
				"/>
		</g>
	</g>
</g>
<g>
	<g transform="translate(248.153065, 290.066583)">
		<g>
			<path class="st0" d="M-64-207.8h4v1.4h-5.5v-9.2h1.5V-207.8z"/>
		</g>
	</g>
</g>
<g>
	<g transform="translate(257.908626, 290.066583)">
		<g>
			<path class="st0" d="M-59.9-214.2h-2.9v7.8h-1.6v-7.8h-2.9v-1.4h7.4V-214.2z"/>
		</g>
	</g>
</g>
<g>
	<g transform="translate(268.294894, 290.066583)">
		<g>
			<path class="st0" d="M-65.3-206.4h-1.5v-9.2h1.5V-206.4z"/>
		</g>
	</g>
</g>
<g>
	<g transform="translate(274.798823, 290.066583)">
		<g>
			<path class="st0" d="M-59.3-206.4h-1.5l-4.9-6.6v6.6h-1.5v-9.2h1.5l4.9,6.6v-6.6h1.5V-206.4z"/>
		</g>
	</g>
</g>
<g>
	<g transform="translate(288.170419, 290.066583)">
		<g>
			<path class="st0" d="M-61.8-211h1.4v3.4c-0.5,0.4-1,0.7-1.7,0.9c-0.6,0.2-1.3,0.3-1.9,0.3c-1.4,0-2.5-0.4-3.4-1.3
				c-0.9-0.9-1.4-2-1.4-3.3c0-1.3,0.5-2.4,1.4-3.3c0.9-0.9,2.1-1.3,3.5-1.3c0.6,0,1.3,0.1,1.9,0.4c0.6,0.2,1.2,0.5,1.6,0.9l-0.9,1.1
				c-0.8-0.7-1.6-1-2.6-1c-0.9,0-1.7,0.3-2.4,1c-0.6,0.6-1,1.4-1,2.3c0,0.9,0.3,1.7,1,2.3c0.7,0.6,1.4,0.9,2.4,0.9
				c0.7,0,1.4-0.2,2.1-0.6V-211z"/>
		</g>
	</g>
</g>
</svg>
